<svg width="329" height="154" viewBox="0 0 329 154" fill="none" xmlns="http://www.w3.org/2000/svg">
<path d="M86 19L81.5 15L69.5 24V25.5L69 27.5C69.3333 28.6667 68 30.5 71.5 31C71.896 31.0566 68.5 33.5 69 34L73 38L70.5 42L66.5 45L62 47L58 48.5L57.5 55L63 61.5L64.5 53L69 49L77 48L80.5 46L81.5 42L80.5 37V34L84 31.5L81.5 29L83 28L84 27L82.5 25.5L81.5 23L85.5 20.5L86 19Z" fill="#FFAC9D"/>
<path d="M69.5 24L44 43V43.5L58 55.5C58 55.5 59.1927 53.7733 59.5 52.5C59.8207 51.1713 59.5 49 59.5 49C59.5 49 61.6461 49.1873 63 49C65.5145 48.6521 67.0087 48.0742 69 46.5C70.4122 45.3836 72 43 72 43C72 43 73.5617 40.0377 73.5 38C73.4439 36.1484 73.0488 34.7693 72.5 33C71.3635 29.3359 69.5 24 69.5 24Z" fill="#AE6851"/>
<path d="M83 26L80 27.5V28.5L80.5 29H82L84 27L83 26Z" fill="#FE9C93"/>
<path d="M80.5002 34.4999L83.5 32L84 31.5L83.5 30.4999L81.0002 29.9999L80.3392 30.4971L79.9657 31.1954L79.5002 32.9999L80.5002 34.4999Z" fill="#FF9B8A"/>
<path d="M20.5 105V76L31.5 63H54L64 71L111 120.5L121 147L113 152.5L71 153L64 149.5L20.5 105Z" fill="white"/>
<path d="M119.5 144.5L109 120L167.5 103.5C169.667 100.667 174.1 94.6 174.5 93C175 91 182 83.5 182.5 82C182.9 80.8 183.333 78.1667 183.5 77C185.333 77.6667 189.5 79 191.5 79C193.5 79 192.333 75.6667 191.5 74V67.5L200 66H209L205.5 72.5L206.5 88C201.5 95 191.3 109.1 190.5 109.5C189.7 109.9 142.833 133 119.5 144.5Z" fill="#FFAFA1"/>
<path d="M129.5 115.5L111 121L102.5 114L86.5 96.5L80 81L78.5 73L90 76L100.5 79L112 101L129.5 115.5Z" fill="white"/>
<path fill-rule="evenodd" clip-rule="evenodd" d="M147.285 0.895C146.981 1.387 143.095 12.299 138.649 25.145C134.203 37.99 129.519 50.305 128.241 52.511C126.948 54.742 124.148 57.515 121.932 58.761C118.014 60.963 117.36 61 82.416 61H46.884L44.218 52.993C42.435 47.641 41.165 45.216 40.386 45.678C39.745 46.058 31.912 51.71 22.981 58.238C14.049 64.765 5.65299 71.545 4.32299 73.303C2.99299 75.061 1.36999 78.506 0.717987 80.958C0.0649871 83.41 -0.190013 87.164 0.151987 89.3C0.493987 91.436 1.61399 94.83 2.64099 96.842C3.70999 98.935 15.339 110.725 29.815 124.395C45.958 139.638 56.586 148.92 59.17 150.03C61.397 150.988 64.977 152.081 67.125 152.46L71.031 153.149L66.625 147.879C64.202 144.98 54.425 133.359 44.898 122.054C35.371 110.749 26.637 99.7 25.49 97.5C24.112 94.859 23.403 91.631 23.403 88C23.403 84.398 24.116 81.12 25.47 78.5C26.607 76.3 28.816 73.286 30.378 71.803C31.941 70.32 35.02 68.344 37.22 67.413C39.426 66.479 43.723 65.735 46.801 65.754C50.524 65.776 53.854 66.528 56.801 68.011C59.232 69.234 63.406 72.545 66.079 75.368C68.751 78.19 79.499 89.855 89.964 101.288C100.428 112.722 109.413 121.936 109.93 121.763C110.447 121.591 110.813 121.011 110.744 120.475C110.674 119.939 105.353 113.528 98.919 106.228C89.304 95.32 86.644 91.592 83.988 85.294C82.21 81.079 80.899 77.488 81.074 77.313C81.249 77.138 83.867 77.847 86.893 78.888C89.919 79.929 93.782 81.498 95.478 82.375C97.175 83.252 99.434 85.214 100.5 86.735C101.566 88.256 103.198 91.818 104.127 94.65C105.458 98.712 107.495 101.459 113.769 107.65C118.144 111.968 122.735 115.878 123.972 116.341C125.603 116.951 132.397 115.441 148.72 110.841L171.22 104.5L173.72 99.428C175.095 96.639 177.393 92.814 178.826 90.928C180.259 89.043 182.479 85.588 183.76 83.25C185.04 80.913 186.429 79 186.845 79C187.261 79 187.887 79.461 188.235 80.024C188.583 80.587 188.09 83.083 187.14 85.57C185.983 88.6 185.745 90.425 186.418 91.098C187.091 91.771 187.985 91.245 189.126 89.503C190.063 88.073 190.753 86.138 190.66 85.202C190.566 84.266 190.542 82.682 190.605 81.683C190.69 80.339 191.24 80.03 192.714 80.498C194.245 80.984 194.568 80.767 194.106 79.563C193.775 78.701 193.786 76.872 194.131 75.498C194.476 74.124 195.167 73 195.666 73C196.165 73 196.779 73.788 197.031 74.75C197.282 75.713 197.54 74.588 197.604 72.25C197.668 69.912 198.143 68 198.661 68C199.179 68 199.882 68.453 200.225 69.008C200.608 69.628 201.452 69.411 202.419 68.443C203.54 67.323 204.3 67.18 205.066 67.946C205.831 68.711 205.687 69.807 204.563 71.76C203.517 73.579 202.981 77.025 202.969 82.009C202.954 88.64 202.576 90.161 199.74 95.009C197.973 98.029 195.559 101.562 194.374 102.86C193.189 104.158 189.754 106.806 186.74 108.744C183.727 110.683 166.249 119.633 147.901 128.634C129.553 137.636 114.131 145 113.63 145C113.13 145 112.72 145.977 112.72 147.171C112.72 148.365 111.975 150.165 111.065 151.171C109.463 152.941 111.927 153 188.016 153C240.81 153 268.285 152.643 271.687 151.914C274.473 151.316 278.874 149.404 281.467 147.664C284.866 145.383 286.929 142.964 288.856 139C290.327 135.975 299.752 109.875 309.8 81C325.747 35.171 328.07 27.724 328.074 22.393C328.077 17.539 327.517 15.33 325.344 11.621C323.84 9.055 320.863 5.799 318.728 4.387C316.593 2.974 313.143 1.434 311.061 0.964C308.979 0.495 307.124 0.263 306.938 0.449C306.752 0.635 306.169 3.873 305.642 7.644C305.116 11.415 303.97 16.75 303.097 19.5C302.224 22.25 299.712 27.578 297.516 31.341C295.32 35.103 290.827 40.812 287.531 44.026C284.021 47.45 278.366 51.519 273.88 53.849C269.667 56.037 263.455 58.541 260.076 59.414C254.832 60.767 245.951 61 199.5 61H145.069L142.894 58.686C141.698 57.413 140.72 55.212 140.72 53.796C140.72 52.379 144.545 40.161 149.22 26.645C153.895 13.129 157.72 1.604 157.72 1.035C157.72 0.461 155.518 0 152.779 0C150.061 0 147.589 0.403 147.285 0.895Z" fill="#25262B"/>
<ellipse cx="260.5" cy="17.5" rx="15.5" ry="14.5" fill="white"/>
<path d="M142.5 140.505C139.766 144.915 138 153.005 138 153.005H220.5L239.5 143.005L238.5 144.505L252 153.005H268.5C268.5 153.005 277.157 151.668 281.5 148.505C287 144.5 290 136.5 290 136.5L247.5 105.005C247.5 105.005 242.099 103.115 238.5 103.005C234.328 102.878 228 105.005 228 105.005L157 128.005C157 128.005 146.44 134.151 142.5 140.505Z" fill="#FF9ABB"/>
<path d="M189.501 91H187.001L186.826 90.8264L196 78.5L203.5 67L205.001 67.5L189.501 91Z" fill="white" stroke="white"/>
<path d="M72.5 82.5C69.6667 75.8333 63.8 63.1 63 61.5L79.5 75L86 97L72.5 82.5Z" fill="#5D0DDF"/>
<path d="M121.5 153L123 140.5L141 132L132 153H126.5H121.5Z" fill="#5D0DDF"/>
</svg>
