<svg width="389" height="79" viewBox="0 0 389 79" fill="none" xmlns="http://www.w3.org/2000/svg">
<path d="M45.9918 33.7941L45.9918 37.8643C45.9918 46.4205 42.3446 51.8138 35.7362 53.0465C32.8707 53.5741 29.9463 53.5741 26.8192 53.5741L17.7068 53.5741C17.7068 53.5741 17.7068 67.0248 17.7068 70.8131C17.7068 72.0312 17.6847 72.4506 17.4745 72.7072C17.2643 72.9639 16.8917 72.9928 15.8886 73C13.8751 73 11.8691 73 9.85541 73C8.06695 73 6.27092 73 4.47505 73C3.73744 73 3.49047 72.9783 3.31341 72.8735L3.22488 72.8193L3.16585 72.7325C3.01467 72.5192 3 72.1975 3 71.2468C3 50.1148 3 28.9804 3.00001 7.84356C3.00001 6.75921 3.04056 6.45911 3.19916 6.25663L3.2544 6.19878C3.27539 6.17944 3.29748 6.16134 3.32083 6.14464C3.51257 6.02537 3.7597 6 4.42707 6L33.0847 6C39.2285 6.06141 44.4503 10.7825 45.789 17.4335C45.9572 18.5231 46.0251 19.6253 45.9918 20.7267L45.9918 21.0158C45.9992 24.7066 45.9918 30.107 45.9918 33.7941ZM32.17 24.9595C32.1443 21.2364 30.5697 18.6735 27.6268 18.4529C26.572 18.3698 25.4325 18.3337 24.0386 18.3337C23.1757 18.3337 22.3128 18.3337 21.4571 18.3626C20.6016 18.3915 19.7166 18.3915 18.8389 18.3915L16.9692 18.3915L16.9692 41.3778L18.813 41.3778C19.5986 41.3778 20.3619 41.3778 21.1068 41.3778L21.4756 41.3778C22.309 41.3778 23.124 41.3778 23.9353 41.3778C25.1745 41.3778 26.1886 41.3778 27.1289 41.3272C30.4037 41.1971 32.1369 39.0356 32.1848 34.8785C32.1959 33.8699 32.1812 26.438 32.17 24.9595Z" fill="#25262B"/>
<path fill-rule="evenodd" clip-rule="evenodd" d="M58 30V54H64H70V43V32H87.5H105V29V26H87.5H70V19.5V13H88H106V9.5V6H82H58V30ZM117.232 29.75L117.5 53.5L123.25 53.8L129 54.1V30.05V6H122.982H116.964L117.232 29.75ZM142.667 6.66699C142.3 7.03299 142 17.833 142 30.667V54H146H150V36C150 26.1 150.337 18.024 150.75 18.053C151.163 18.083 156.939 26.07 163.587 35.803L175.675 53.5L183.837 53.79L192 54.081V30.04V6H188.023H184.046L183.773 23.617L183.5 41.233L171 23.638L158.5 6.043L150.917 6.022C146.746 6.01 143.033 6.29999 142.667 6.66699ZM205 30.09V54.181L224.75 53.84C242.423 53.536 244.921 53.281 248.5 51.416C251.03 50.098 253.375 47.764 254.881 45.064C256.704 41.797 257.376 38.767 257.747 32.148C258.022 27.238 257.747 21.719 257.112 19.381C256.497 17.115 255.018 14.021 253.825 12.505C252.633 10.989 249.822 8.915 247.579 7.896C244.067 6.301 240.823 6.041 224.25 6.022L205 6V30.09ZM269 30V54H293.5H318V50.5V47H299.456H280.912L281.206 39.75L281.5 32.5L298.75 32.226L316 31.953V28.976V26H298.5H281V19.5V13H299.5H318V9.5V6H293.5H269V30ZM330 30V54H336.5H343V33.5V13H354.378C363.371 13 366.021 13.321 367.025 14.53C368.097 15.822 367.592 16.734 363.784 20.383C361.303 22.76 357.423 25.559 355.162 26.602C352.901 27.646 351.04 28.844 351.026 29.264C351.012 29.684 355.163 35.393 360.25 41.952L369.5 53.876L377.872 53.938C385.703 53.996 386.157 53.887 384.882 52.25C384.133 51.288 379.514 45.876 374.618 40.225C369.722 34.574 365.893 29.814 366.108 29.649C366.324 29.483 368.156 28.352 370.18 27.135C372.204 25.919 375.235 23.357 376.916 21.443C378.596 19.529 380.243 16.879 380.576 15.554C380.908 14.229 380.872 12.171 380.494 10.981C380.116 9.79099 378.29 8.184 376.436 7.409C373.89 6.345 367.789 6 351.532 6H330V30ZM240.033 14.517C241.646 15.351 243.72 17.489 244.642 19.267C245.77 21.445 246.303 24.844 246.273 29.682C246.244 34.585 245.638 38.075 244.365 40.682C242.952 43.575 241.547 44.811 238.564 45.785C236.193 46.559 231.025 46.957 225.564 46.785L216.5 46.5L216.223 31.042C216.07 22.54 216.169 15.003 216.441 14.292C216.801 13.354 219.701 13 227.018 13C234.073 13 237.98 13.455 240.033 14.517Z" fill="#25262B"/>
<path fill-rule="evenodd" clip-rule="evenodd" d="M273 64.4864C270.25 64.6544 263.05 65.2704 257 65.8544C250.95 66.4384 236.177 68.4864 224.171 70.4054C212.165 72.3254 197.54 74.2994 191.671 74.7934L181 75.6924L194 75.3294C201.36 75.1244 216.08 73.6304 227.928 71.8854C239.438 70.1904 255.413 68.3024 263.428 67.6904C272.455 67.0004 288.464 66.8154 305.5 67.2034C320.625 67.5484 342.225 68.4934 353.5 69.3034C364.775 70.1134 376.678 70.7864 379.95 70.7984C383.532 70.8114 385.522 70.4604 384.95 69.9154C384.428 69.4184 376.35 68.2834 367 67.3944C357.65 66.5054 341.225 65.3444 330.5 64.8134C319.775 64.2824 303.575 63.9224 294.5 64.0144C285.425 64.1064 275.75 64.3184 273 64.4864Z" fill="black"/>
<path fill-rule="evenodd" clip-rule="evenodd" d="M225.793 60.1478C223.043 60.3568 210.218 61.2158 197.293 62.0578C184.368 62.8988 149.943 65.1348 120.793 67.0248C91.6426 68.9158 61.0426 70.9318 52.7926 71.5048C44.5426 72.0788 36.2176 72.6928 34.2926 72.8708C32.3676 73.0488 40.1456 73.2658 51.5766 73.3538C63.0076 73.4418 86.8576 72.8368 104.577 72.0098C122.296 71.1828 158.168 69.3678 184.293 67.9768C210.418 66.5858 234.229 65.0138 237.206 64.4848C240.183 63.9548 242.853 63.2868 243.139 63.0008C243.425 62.7148 243.234 62.0548 242.713 61.5338C242.192 61.0128 239.297 60.4028 236.28 60.1778C233.262 59.9528 228.543 59.9398 225.793 60.1478Z" fill="#25262B"/>
</svg>
